<svg width="342" height="33" viewBox="0 0 342 33" fill="none" xmlns="http://www.w3.org/2000/svg">
<path d="M160.854 31.4426C162.227 30.7142 163.179 28.4443 163.179 26.6018V13.9611L163.857 14.9962V26.6008C163.857 28.4432 164.932 30.7142 166.304 31.4426V31.7426H160.854V31.4426Z" fill="black"/>
<path d="M180.619 2.08888V1.74609H186.087V2.08888C184.755 2.8173 183.735 5.04541 183.735 6.88788V31.7398H182.938L160.854 1.74609H164.932L182.749 26.341V6.88788C182.749 5.04541 181.952 2.8173 180.619 2.08888Z" fill="black"/>
<path d="M201.126 31.4431C201.732 31.0574 202.055 30.4147 202.055 28.915V6.59102H205.204V28.915C205.204 30.4147 205.527 31.0574 206.133 31.4431V31.743H201.126V31.4431Z" fill="black"/>
<path d="M193.372 1.74609H213.882L215.174 6.97358L214.931 7.10212C213.115 4.91686 210.571 2.56979 206.09 2.56979H201.164C196.683 2.56979 194.139 4.91686 192.323 7.10212L192.08 6.97358L193.372 1.74609Z" fill="black"/>
<path d="M297.905 1.74954C290.09 1.74954 283.577 8.45206 283.577 16.7464C283.577 24.9989 290.09 31.7433 297.905 31.7433C305.72 31.7433 312.233 24.9989 312.233 16.7464C312.233 8.45206 305.72 1.74954 297.905 1.74954ZM301.931 30.7379C295.34 32.8743 289.498 27.5542 287.367 20.1396C285.235 12.7668 287.288 4.89134 293.879 2.75492C300.471 0.618491 306.312 5.93861 308.444 13.3114C310.575 20.726 308.523 28.6015 301.931 30.7379Z" fill="black"/>
<path d="M257.529 17.3034L261.162 24.0735C263.544 28.4868 264.836 29.9437 266.41 31.4434V31.7433H260.193V31.4434C261.243 30.3293 260.395 28.7868 258.82 25.8302L254.501 17.9033H253.034L253.618 16.6769H254.139C258.82 16.6769 261.404 13.1472 261.404 9.84785C261.404 6.50569 260.355 2.09233 252.684 2.09233H248.929V28.9153C248.929 30.415 249.212 31.0577 249.817 31.4434V31.7433H244.852V31.4434C245.457 31.0577 245.74 30.415 245.74 28.9153V4.62037C245.74 3.07784 245.457 2.47796 244.852 2.09233V1.74954H252.684C258.942 1.74954 264.594 4.23474 264.594 9.84785C264.594 13.8756 261.566 16.3179 257.529 17.3034Z" fill="black"/>
<path d="M331.498 17.3034L335.132 24.0735C337.514 28.4868 338.806 29.9437 340.38 31.4434V31.7433H334.163V31.4434C335.213 30.3293 334.365 28.7868 332.79 25.8302L328.47 17.9033H327.309L327.91 16.6002H328.253C334.062 16.6002 335.374 13.1472 335.374 9.84785C335.374 6.50569 334.324 2.09233 326.654 2.09233H322.899V28.9153C322.899 30.415 323.182 31.0577 323.787 31.4434V31.7433H318.821V31.4434C319.427 31.0577 319.71 30.415 319.71 28.9153V4.62037C319.71 3.07784 319.427 2.47796 318.821 2.09233V1.74954H326.654C332.911 1.74954 338.564 4.23474 338.564 9.84785C338.564 13.8756 335.536 16.3179 331.498 17.3034Z" fill="black"/>
<path d="M238.118 26.3869C236.22 29.0009 232.869 31.2549 228.428 31.2549H225.158V2.30743H227.984C232.465 2.30743 234.969 4.44587 236.826 6.67425L237.028 6.50283L236.18 1.74609H221.08C221.08 1.74609 221.08 2.00322 221.08 2.08892C221.686 2.4746 221.969 3.11741 221.969 4.61728V28.9152C221.969 30.4151 221.686 31.0579 221.08 31.4436C221.08 31.5293 221.08 31.7436 221.08 31.7436H237.472L238.36 26.5583L238.118 26.3869Z" fill="black"/>
<path d="M139.053 27.0775C137.841 27.0775 136.832 28.1059 136.832 29.3914C136.832 30.6768 137.841 31.748 139.053 31.748C140.264 31.748 141.233 30.6768 141.233 29.3914C141.233 28.1059 140.264 27.0775 139.053 27.0775Z" fill="black"/>
<path d="M152.455 4.62037V28.9153C152.455 30.415 152.737 31.0577 153.343 31.4434V31.7433H148.337V31.4434C148.983 31.0577 149.265 30.415 149.265 28.9153V4.62037C149.265 3.12068 148.983 2.47796 148.337 2.09233V1.74954H153.343V2.09233C152.737 2.47796 152.455 3.12068 152.455 4.62037Z" fill="black"/>
<path d="M276.189 4.62037V28.9153C276.189 30.415 276.472 31.0577 277.077 31.4434V31.7433H272.071V31.4434C272.717 31.0577 273 30.415 273 28.9153V4.62037C273 3.12068 272.717 2.47796 272.071 2.09233V1.74954H277.077V2.09233C276.472 2.47796 276.189 3.12068 276.189 4.62037Z" fill="black"/>
<path d="M232.686 16.0033H223.156V17.4813H233.383L232.686 16.0033Z" fill="black"/>
<path d="M160.854 31.4426C162.227 30.7142 163.179 28.4443 163.179 26.6018V13.9611L163.857 14.9962V26.6008C163.857 28.4432 164.932 30.7142 166.304 31.4426V31.7426H160.854V31.4426Z" stroke="black" stroke-width="1.5"/>
<path d="M180.619 2.08888V1.74609H186.087V2.08888C184.755 2.8173 183.735 5.04541 183.735 6.88788V31.7398H182.938L160.854 1.74609H164.932L182.749 26.341V6.88788C182.749 5.04541 181.952 2.8173 180.619 2.08888Z" stroke="black" stroke-width="1.5"/>
<path d="M201.126 31.4431C201.732 31.0574 202.055 30.4147 202.055 28.915V6.59102H205.204V28.915C205.204 30.4147 205.527 31.0574 206.133 31.4431V31.743H201.126V31.4431Z" stroke="black" stroke-width="1.5"/>
<path d="M193.372 1.74609H213.882L215.174 6.97358L214.931 7.10212C213.115 4.91686 210.571 2.56979 206.09 2.56979H201.164C196.683 2.56979 194.139 4.91686 192.323 7.10212L192.08 6.97358L193.372 1.74609Z" stroke="black" stroke-width="1.5"/>
<path d="M297.905 1.74954C290.09 1.74954 283.577 8.45206 283.577 16.7464C283.577 24.9989 290.09 31.7433 297.905 31.7433C305.72 31.7433 312.233 24.9989 312.233 16.7464C312.233 8.45206 305.72 1.74954 297.905 1.74954ZM301.931 30.7379C295.34 32.8743 289.498 27.5542 287.367 20.1396C285.235 12.7668 287.288 4.89134 293.879 2.75492C300.471 0.618491 306.312 5.93861 308.444 13.3114C310.575 20.726 308.523 28.6015 301.931 30.7379Z" stroke="black" stroke-width="1.5"/>
<path d="M257.529 17.3034L261.162 24.0735C263.544 28.4868 264.836 29.9437 266.41 31.4434V31.7433H260.193V31.4434C261.243 30.3293 260.395 28.7868 258.82 25.8302L254.501 17.9033H253.034L253.618 16.6769H254.139C258.82 16.6769 261.404 13.1472 261.404 9.84785C261.404 6.50569 260.355 2.09233 252.684 2.09233H248.929V28.9153C248.929 30.415 249.212 31.0577 249.817 31.4434V31.7433H244.852V31.4434C245.457 31.0577 245.74 30.415 245.74 28.9153V4.62037C245.74 3.07784 245.457 2.47796 244.852 2.09233V1.74954H252.684C258.942 1.74954 264.594 4.23474 264.594 9.84785C264.594 13.8756 261.566 16.3179 257.529 17.3034Z" stroke="black" stroke-width="1.5"/>
<path d="M331.498 17.3034L335.132 24.0735C337.514 28.4868 338.806 29.9437 340.38 31.4434V31.7433H334.163V31.4434C335.213 30.3293 334.365 28.7868 332.79 25.8302L328.47 17.9033H327.309L327.91 16.6002H328.253C334.062 16.6002 335.374 13.1472 335.374 9.84785C335.374 6.50569 334.324 2.09233 326.654 2.09233H322.899V28.9153C322.899 30.415 323.182 31.0577 323.787 31.4434V31.7433H318.821V31.4434C319.427 31.0577 319.71 30.415 319.71 28.9153V4.62037C319.71 3.07784 319.427 2.47796 318.821 2.09233V1.74954H326.654C332.911 1.74954 338.564 4.23474 338.564 9.84785C338.564 13.8756 335.536 16.3179 331.498 17.3034Z" stroke="black" stroke-width="1.5"/>
<path d="M238.118 26.3869C236.22 29.0009 232.869 31.2549 228.428 31.2549H225.158V2.30743H227.984C232.465 2.30743 234.969 4.44587 236.826 6.67425L237.028 6.50283L236.18 1.74609H221.08C221.08 1.74609 221.08 2.00322 221.08 2.08892C221.686 2.4746 221.969 3.11741 221.969 4.61728V28.9152C221.969 30.4151 221.686 31.0579 221.08 31.4436C221.08 31.5293 221.08 31.7436 221.08 31.7436H237.472L238.36 26.5583L238.118 26.3869Z" stroke="black" stroke-width="1.5"/>
<path d="M139.053 27.0775C137.841 27.0775 136.832 28.1059 136.832 29.3914C136.832 30.6768 137.841 31.748 139.053 31.748C140.264 31.748 141.233 30.6768 141.233 29.3914C141.233 28.1059 140.264 27.0775 139.053 27.0775Z" stroke="black" stroke-width="1.5"/>
<path d="M152.455 4.62037V28.9153C152.455 30.415 152.737 31.0577 153.343 31.4434V31.7433H148.337V31.4434C148.983 31.0577 149.265 30.415 149.265 28.9153V4.62037C149.265 3.12068 148.983 2.47796 148.337 2.09233V1.74954H153.343V2.09233C152.737 2.47796 152.455 3.12068 152.455 4.62037Z" stroke="black" stroke-width="1.5"/>
<path d="M276.189 4.62037V28.9153C276.189 30.415 276.472 31.0577 277.077 31.4434V31.7433H272.071V31.4434C272.717 31.0577 273 30.415 273 28.9153V4.62037C273 3.12068 272.717 2.47796 272.071 2.09233V1.74954H277.077V2.09233C276.472 2.47796 276.189 3.12068 276.189 4.62037Z" stroke="black" stroke-width="1.5"/>
<path d="M232.686 16.0033H223.156V17.4813H233.383L232.686 16.0033Z" stroke="black" stroke-width="1.5"/>
</svg>
