<svg width="206" height="33" viewBox="0 0 206 33" fill="none" xmlns="http://www.w3.org/2000/svg">
<path d="M24.854 31.4426C26.2267 30.7142 27.1786 28.4443 27.1786 26.6018V13.9611L27.8572 14.9962V26.6008C27.8572 28.4432 28.9316 30.7142 30.3043 31.4426V31.7426H24.854V31.4426Z" fill="black"/>
<path d="M44.6193 2.08888V1.74609H50.0869V2.08888C48.7546 2.8173 47.7351 5.04541 47.7351 6.88788V31.7398H46.9378L24.854 1.74609H28.9317L46.7492 26.341V6.88788C46.7492 5.04541 45.9516 2.8173 44.6193 2.08888Z" fill="black"/>
<path d="M65.1264 31.4431C65.732 31.0574 66.055 30.4147 66.055 28.915V6.59102H69.2041V28.915C69.2041 30.4147 69.527 31.0574 70.1326 31.4431V31.743H65.1264V31.4431Z" fill="black"/>
<path d="M57.3724 1.74609H77.8816L79.1735 6.97358L78.9313 7.10212C77.1145 4.91686 74.571 2.56979 70.0897 2.56979H65.1643C60.6829 2.56979 58.1394 4.91686 56.3227 7.10212L56.0804 6.97358L57.3724 1.74609Z" fill="black"/>
<path d="M161.905 1.74954C154.09 1.74954 147.577 8.45206 147.577 16.7464C147.577 24.9989 154.09 31.7433 161.905 31.7433C169.72 31.7433 176.233 24.9989 176.233 16.7464C176.233 8.45206 169.72 1.74954 161.905 1.74954ZM165.931 30.7379C159.34 32.8743 153.498 27.5542 151.367 20.1396C149.235 12.7668 151.288 4.89134 157.879 2.75492C164.471 0.618491 170.312 5.93861 172.444 13.3114C174.575 20.726 172.523 28.6015 165.931 30.7379Z" fill="black"/>
<path d="M121.529 17.3034L125.162 24.0735C127.544 28.4868 128.836 29.9437 130.41 31.4434V31.7433H124.193V31.4434C125.243 30.3293 124.395 28.7868 122.82 25.8302L118.501 17.9033H117.034L117.618 16.6769H118.139C122.82 16.6769 125.404 13.1472 125.404 9.84785C125.404 6.50569 124.355 2.09233 116.684 2.09233H112.929V28.9153C112.929 30.415 113.212 31.0577 113.817 31.4434V31.7433H108.852V31.4434C109.457 31.0577 109.74 30.415 109.74 28.9153V4.62037C109.74 3.07784 109.457 2.47796 108.852 2.09233V1.74954H116.684C122.942 1.74954 128.594 4.23474 128.594 9.84785C128.594 13.8756 125.566 16.3179 121.529 17.3034Z" fill="black"/>
<path d="M195.498 17.3034L199.132 24.0735C201.514 28.4868 202.806 29.9437 204.38 31.4434V31.7433H198.163V31.4434C199.213 30.3293 198.365 28.7868 196.79 25.8302L192.47 17.9033H191.309L191.91 16.6002H192.253C198.062 16.6002 199.374 13.1472 199.374 9.84785C199.374 6.50569 198.324 2.09233 190.654 2.09233H186.899V28.9153C186.899 30.415 187.182 31.0577 187.787 31.4434V31.7433H182.821V31.4434C183.427 31.0577 183.71 30.415 183.71 28.9153V4.62037C183.71 3.07784 183.427 2.47796 182.821 2.09233V1.74954H190.654C196.911 1.74954 202.564 4.23474 202.564 9.84785C202.564 13.8756 199.536 16.3179 195.498 17.3034Z" fill="black"/>
<path d="M102.118 26.3869C100.22 29.0009 96.8692 31.2549 92.4282 31.2549H89.158V2.30743H91.9841C96.4655 2.30743 98.9686 4.44587 100.826 6.67425L101.028 6.50283L100.18 1.74609H85.0804C85.0804 1.74609 85.0804 2.00322 85.0804 2.08892C85.686 2.4746 85.9686 3.11741 85.9686 4.61728V28.9152C85.9686 30.4151 85.686 31.0579 85.0804 31.4436C85.0804 31.5293 85.0804 31.7436 85.0804 31.7436H101.472L102.36 26.5583L102.118 26.3869Z" fill="black"/>
<path d="M3.05252 27.0775C1.84134 27.0775 0.832031 28.1059 0.832031 29.3914C0.832031 30.6768 1.84134 31.748 3.05252 31.748C4.26369 31.748 5.23264 30.6768 5.23264 29.3914C5.23264 28.1059 4.26369 27.0775 3.05252 27.0775Z" fill="black"/>
<path d="M16.4548 4.62037V28.9153C16.4548 30.415 16.7374 31.0577 17.343 31.4434V31.7433H12.3368V31.4434C12.9827 31.0577 13.2653 30.415 13.2653 28.9153V4.62037C13.2653 3.12068 12.9827 2.47796 12.3368 2.09233V1.74954H17.343V2.09233C16.7374 2.47796 16.4548 3.12068 16.4548 4.62037Z" fill="black"/>
<path d="M140.189 4.62037V28.9153C140.189 30.415 140.472 31.0577 141.077 31.4434V31.7433H136.071V31.4434C136.717 31.0577 137 30.415 137 28.9153V4.62037C137 3.12068 136.717 2.47796 136.071 2.09233V1.74954H141.077V2.09233C140.472 2.47796 140.189 3.12068 140.189 4.62037Z" fill="black"/>
<path d="M96.6863 16.0033H87.156V17.4813H97.3832L96.6863 16.0033Z" fill="black"/>
<path d="M24.854 31.4426C26.2267 30.7142 27.1786 28.4443 27.1786 26.6018V13.9611L27.8572 14.9962V26.6008C27.8572 28.4432 28.9316 30.7142 30.3043 31.4426V31.7426H24.854V31.4426Z" stroke="black" stroke-width="1.5"/>
<path d="M44.6193 2.08888V1.74609H50.0869V2.08888C48.7546 2.8173 47.7351 5.04541 47.7351 6.88788V31.7398H46.9378L24.854 1.74609H28.9317L46.7492 26.341V6.88788C46.7492 5.04541 45.9516 2.8173 44.6193 2.08888Z" stroke="black" stroke-width="1.5"/>
<path d="M65.1264 31.4431C65.732 31.0574 66.055 30.4147 66.055 28.915V6.59102H69.2041V28.915C69.2041 30.4147 69.527 31.0574 70.1326 31.4431V31.743H65.1264V31.4431Z" stroke="black" stroke-width="1.5"/>
<path d="M57.3724 1.74609H77.8816L79.1735 6.97358L78.9313 7.10212C77.1145 4.91686 74.571 2.56979 70.0897 2.56979H65.1643C60.6829 2.56979 58.1394 4.91686 56.3227 7.10212L56.0804 6.97358L57.3724 1.74609Z" stroke="black" stroke-width="1.5"/>
<path d="M161.905 1.74954C154.09 1.74954 147.577 8.45206 147.577 16.7464C147.577 24.9989 154.09 31.7433 161.905 31.7433C169.72 31.7433 176.233 24.9989 176.233 16.7464C176.233 8.45206 169.72 1.74954 161.905 1.74954ZM165.931 30.7379C159.34 32.8743 153.498 27.5542 151.367 20.1396C149.235 12.7668 151.288 4.89134 157.879 2.75492C164.471 0.618491 170.312 5.93861 172.444 13.3114C174.575 20.726 172.523 28.6015 165.931 30.7379Z" stroke="black" stroke-width="1.5"/>
<path d="M121.529 17.3034L125.162 24.0735C127.544 28.4868 128.836 29.9437 130.41 31.4434V31.7433H124.193V31.4434C125.243 30.3293 124.395 28.7868 122.82 25.8302L118.501 17.9033H117.034L117.618 16.6769H118.139C122.82 16.6769 125.404 13.1472 125.404 9.84785C125.404 6.50569 124.355 2.09233 116.684 2.09233H112.929V28.9153C112.929 30.415 113.212 31.0577 113.817 31.4434V31.7433H108.852V31.4434C109.457 31.0577 109.74 30.415 109.74 28.9153V4.62037C109.74 3.07784 109.457 2.47796 108.852 2.09233V1.74954H116.684C122.942 1.74954 128.594 4.23474 128.594 9.84785C128.594 13.8756 125.566 16.3179 121.529 17.3034Z" stroke="black" stroke-width="1.5"/>
<path d="M195.498 17.3034L199.132 24.0735C201.514 28.4868 202.806 29.9437 204.38 31.4434V31.7433H198.163V31.4434C199.213 30.3293 198.365 28.7868 196.79 25.8302L192.47 17.9033H191.309L191.91 16.6002H192.253C198.062 16.6002 199.374 13.1472 199.374 9.84785C199.374 6.50569 198.324 2.09233 190.654 2.09233H186.899V28.9153C186.899 30.415 187.182 31.0577 187.787 31.4434V31.7433H182.821V31.4434C183.427 31.0577 183.71 30.415 183.71 28.9153V4.62037C183.71 3.07784 183.427 2.47796 182.821 2.09233V1.74954H190.654C196.911 1.74954 202.564 4.23474 202.564 9.84785C202.564 13.8756 199.536 16.3179 195.498 17.3034Z" stroke="black" stroke-width="1.5"/>
<path d="M102.118 26.3869C100.22 29.0009 96.8692 31.2549 92.4282 31.2549H89.158V2.30743H91.9841C96.4655 2.30743 98.9686 4.44587 100.826 6.67425L101.028 6.50283L100.18 1.74609H85.0804C85.0804 1.74609 85.0804 2.00322 85.0804 2.08892C85.686 2.4746 85.9686 3.11741 85.9686 4.61728V28.9152C85.9686 30.4151 85.686 31.0579 85.0804 31.4436C85.0804 31.5293 85.0804 31.7436 85.0804 31.7436H101.472L102.36 26.5583L102.118 26.3869Z" stroke="black" stroke-width="1.5"/>
<path d="M3.05252 27.0775C1.84134 27.0775 0.832031 28.1059 0.832031 29.3914C0.832031 30.6768 1.84134 31.748 3.05252 31.748C4.26369 31.748 5.23264 30.6768 5.23264 29.3914C5.23264 28.1059 4.26369 27.0775 3.05252 27.0775Z" stroke="black" stroke-width="1.5"/>
<path d="M16.4548 4.62037V28.9153C16.4548 30.415 16.7374 31.0577 17.343 31.4434V31.7433H12.3368V31.4434C12.9827 31.0577 13.2653 30.415 13.2653 28.9153V4.62037C13.2653 3.12068 12.9827 2.47796 12.3368 2.09233V1.74954H17.343V2.09233C16.7374 2.47796 16.4548 3.12068 16.4548 4.62037Z" stroke="black" stroke-width="1.5"/>
<path d="M140.189 4.62037V28.9153C140.189 30.415 140.472 31.0577 141.077 31.4434V31.7433H136.071V31.4434C136.717 31.0577 137 30.415 137 28.9153V4.62037C137 3.12068 136.717 2.47796 136.071 2.09233V1.74954H141.077V2.09233C140.472 2.47796 140.189 3.12068 140.189 4.62037Z" stroke="black" stroke-width="1.5"/>
<path d="M96.6863 16.0033H87.156V17.4813H97.3832L96.6863 16.0033Z" stroke="black" stroke-width="1.5"/>
</svg>
